#N canvas 541 89 1005 717 10;
#X obj 238 454 Sequencer;
#X obj 48 122 unpack f f f;
#X obj 48 103 inlet;
#X obj 330 106 inlet;
#X obj 330 156 sel 0 1 2;
#X obj 194 122 unpack f f f;
#X obj 194 103 inlet;
#X floatatom 220 248 5 0 0 0 - - -;
#X obj 67 223 change;
#X obj 220 268 change;
#X obj 220 289 %;
#X floatatom 220 310 5 0 0 0 - - -;
#X obj 406 74 loadbang;
#X msg 225 51 bang;
#X floatatom 237 482 5 0 0 0 - - -;
#X obj 230 370 list store;
#X obj 260 388 list store;
#X obj 291 406 list store;
#X obj 322 424 list store;
#X obj 207 338 sel 3 2 1 0;
#X obj 23 170 int;
#X obj 67 170 int;
#X obj 111 170 int;
#X floatatom 67 202 5 0 0 0 - - -;
#X obj 220 223 change;
#X obj 176 170 int;
#X obj 220 170 int;
#X obj 264 170 int;
#X floatatom 220 202 5 0 0 0 - - -;
#X obj 238 514 outlet;
#X obj 289 514 outlet;
#X obj 287 324 route sq4 sq3 sq2 sq1;
#X obj 394 106 f \$1;
#X obj 426 106 f \$2;
#X obj 458 106 f \$3;
#X obj 552 107 inlet;
#X msg 406 174 sq1 0 0 0 0 0 0 0 0 0 0 0 0 0 0 0 0;
#X msg 406 191 sq2 0 0 0 0 0 0 0 0 0 0 0 0 0 0 0 0;
#X msg 406 208 sq3 0 0 0 0 0 0 0 0 0 0 0 0 0 0 0 0;
#X msg 406 224 sq4 0 0 0 0 0 0 0 0 0 0 0 0 0 0 0 0;
#N canvas 0 50 450 300 sub1 1;
#X text 343 111 comment;
#X restore 601 400 pd sub1;
#X connect 0 0 14 0;
#X connect 0 1 30 0;
#X connect 1 0 13 0;
#X connect 1 0 20 1;
#X connect 1 1 21 1;
#X connect 1 2 22 1;
#X connect 2 0 1 0;
#X connect 3 0 4 0;
#X connect 4 0 20 0;
#X connect 4 0 25 0;
#X connect 4 1 21 0;
#X connect 4 1 26 0;
#X connect 4 2 22 0;
#X connect 4 2 27 0;
#X connect 5 0 13 0;
#X connect 5 0 25 1;
#X connect 5 1 26 1;
#X connect 5 2 27 1;
#X connect 6 0 5 0;
#X connect 7 0 9 0;
#X connect 8 0 0 0;
#X connect 9 0 10 0;
#X connect 10 0 11 0;
#X connect 11 0 19 0;
#X connect 12 0 32 0;
#X connect 12 0 33 0;
#X connect 12 0 34 0;
#X connect 12 0 36 0;
#X connect 12 0 39 0;
#X connect 12 0 38 0;
#X connect 12 0 37 0;
#X connect 13 0 32 0;
#X connect 14 0 29 0;
#X connect 15 0 0 1;
#X connect 15 0 0 2;
#X connect 16 0 0 1;
#X connect 16 0 0 2;
#X connect 17 0 0 1;
#X connect 17 0 0 2;
#X connect 18 0 0 1;
#X connect 18 0 0 2;
#X connect 19 0 15 0;
#X connect 19 1 16 0;
#X connect 19 2 17 0;
#X connect 19 3 18 0;
#X connect 20 0 23 0;
#X connect 21 0 23 0;
#X connect 22 0 23 0;
#X connect 23 0 8 0;
#X connect 24 0 7 0;
#X connect 25 0 28 0;
#X connect 26 0 28 0;
#X connect 27 0 28 0;
#X connect 28 0 24 0;
#X connect 31 0 15 1;
#X connect 31 1 16 1;
#X connect 31 2 17 1;
#X connect 31 3 18 1;
#X connect 32 0 4 0;
#X connect 33 0 10 1;
#X connect 35 0 31 0;
#X connect 36 0 31 0;
#X connect 37 0 31 0;
#X connect 38 0 31 0;
#X connect 39 0 31 0;
