#N canvas 603 30 1114 797 10;
#X obj 41 164 pack f f;
#X obj 38 135 makenote 100 50;
#X obj 398 170 pack f f;
#X obj 395 141 makenote 100 1000;
#X obj 222 164 pack f f;
#X obj 653 293 unpack 0 0;
#X obj 743 188 vsl 12 60 1 10000 1 1 empty empty A 0 -9 0 10 -262144
-1 -1 1400 1;
#X obj 759 188 vsl 12 60 1 10000 1 1 empty empty D 0 -9 0 10 -262144
-1 -1 4494 1;
#X obj 776 188 vsl 12 60 0 1 0 1 empty empty S 0 -9 0 10 -262144 -1
-1 0 1;
#X obj 792 188 vsl 12 60 1 30000 1 1 empty empty R 0 -9 0 10 -262144
-1 -1 3000 1;
#X floatatom 743 262 5 0 0 0 - - -;
#X floatatom 778 263 5 0 0 0 - - -;
#X floatatom 813 263 5 0 0 0 - - -;
#X floatatom 848 263 5 0 0 0 - - -;
#X obj 208 318 stripnote;
#X obj 209 369 phasor~;
#X obj 209 346 mtof;
#X obj 529 575 vcf~;
#X obj 747 59 vsl 12 60 10 10000 1 1 \$0-cutoff \$0-cutoff-r cutoff
0 -9 0 10 -262144 -1 -1 4200 1;
#X msg 491 469 \$1 50;
#X obj 491 493 line~;
#X obj 607 621 *~;
#X msg 690 562 \$1 50;
#X obj 690 586 line~;
#X obj 642 440 *~;
#X obj 784 86 vsl 12 60 0 1 0 1 \$0-env2filter \$0-env2filter-r envelope->filter
0 -9 0 10 -262144 -1 -1 5900 1;
#X obj 539 543 +~;
#X msg 581 387 \$1 50;
#X obj 583 422 line~;
#X obj 614 672 *~;
#X obj 604 699 dac~;
#X obj 596 511 *~ 10000;
#X obj 596 487 *~;
#X obj 208 395 -~ 0.5;
#X obj 491 445 r \$0-cutoff;
#X obj 581 365 r \$0-env2filter;
#X obj 690 539 r \$0-resonance;
#X obj 766 71 vsl 12 60 1 100 1 1 \$0-resonance \$0-resonance-r resonance
0 -9 0 10 -262144 -1 -1 5300 1;
#N canvas 0 22 450 300 clipping 0;
#X obj 45 144 *~;
#X obj 45 165 +~ 27;
#X obj 105 132 *~;
#X obj 105 153 *~ 9;
#X obj 27 187 *~;
#X obj 27 222 /~;
#X obj 106 176 +~ 27;
#X obj 27 245 outlet~;
#X obj 27 72 clip~ -3 3;
#X obj 27 49 inlet~;
#X text 28 20 tanh(x) ~= x*(27+x*x) / (27+9*x*x);
#X connect 0 0 1 0;
#X connect 1 0 4 1;
#X connect 2 0 3 0;
#X connect 3 0 6 0;
#X connect 4 0 5 0;
#X connect 5 0 7 0;
#X connect 6 0 5 1;
#X connect 8 0 4 0;
#X connect 8 0 0 0;
#X connect 8 0 0 1;
#X connect 8 0 2 0;
#X connect 8 0 2 1;
#X connect 9 0 8 0;
#X restore 609 646 pd clipping;
#X obj 607 458 *~;
#X msg 203 97 25;
#X msg 236 97 40;
#X msg 22 97 31;
#X msg 55 97 43;
#X text 8 74 short note \, normal velocity;
#X text 194 74 short note \, light velocity;
#X text 377 76 long note \, normal velocity;
#X obj 208 420 *~ 0.5;
#X obj 219 135 makenote 40 50;
#X text 643 80 synth settings:;
#X text 627 189 envelope settings:;
#X text 31 262 [stripnote] ensures that only noteon events send pitch
information;
#X text 31 249 simple sawtooth wave:;
#X text 484 574 filter;
#X text 638 673 VCA = multiply the final signal by the envelope;
#X text 697 440 envelope to filter: we apply some exponential scaling
to make the range more responsive to lower frequencies.;
#X text 480 274 here we strip the velocity;
#X text 493 289 from the note value;
#X text 872 332 click in here to see our final;
#X text 871 347 patch created as an abstraction;
#X obj 222 193 s \$0-note;
#X obj 652 266 r \$0-note;
#X obj 208 295 r \$0-note;
#X text 298 18 ADDING IT ALL TOGETHER;
#X text 299 32 ---------------------;
#X msg 378 103 19;
#X msg 412 103 27;
#X text -12 613 (this tutorial by matt davey \, email hard.off@gmail.com
\, licensed under the same license as PD \, "the standard improved
BSD license");
#X text -11 598 nate:;
#X text -11 658 basically \, you are quite free to do whatever you
want. copy \, cut and paste \, use in lectures \, whatever...;
#X obj 713 336 diy-adsr~ 5 200 0.25 1000;
#X obj 627 334 bng 15 250 50 0 empty empty empty 17 7 0 10 -262144
-1 -1;
#X connect 0 0 60 0;
#X connect 1 0 0 0;
#X connect 1 1 0 1;
#X connect 2 0 60 0;
#X connect 3 0 2 0;
#X connect 3 1 2 1;
#X connect 4 0 60 0;
#X connect 5 0 70 0;
#X connect 6 0 10 0;
#X connect 7 0 11 0;
#X connect 8 0 12 0;
#X connect 9 0 13 0;
#X connect 10 0 70 1;
#X connect 11 0 70 2;
#X connect 12 0 70 3;
#X connect 13 0 70 4;
#X connect 14 0 16 0;
#X connect 15 0 33 0;
#X connect 16 0 15 0;
#X connect 17 0 21 0;
#X connect 19 0 20 0;
#X connect 20 0 26 0;
#X connect 21 0 38 0;
#X connect 22 0 23 0;
#X connect 23 0 21 1;
#X connect 24 0 39 1;
#X connect 26 0 17 1;
#X connect 27 0 28 0;
#X connect 28 0 39 0;
#X connect 29 0 30 0;
#X connect 29 0 30 1;
#X connect 31 0 26 1;
#X connect 32 0 31 0;
#X connect 33 0 47 0;
#X connect 34 0 19 0;
#X connect 35 0 27 0;
#X connect 36 0 22 0;
#X connect 36 0 17 2;
#X connect 38 0 29 0;
#X connect 39 0 32 1;
#X connect 39 0 32 0;
#X connect 40 0 48 0;
#X connect 41 0 48 0;
#X connect 42 0 1 0;
#X connect 43 0 1 0;
#X connect 47 0 17 0;
#X connect 48 0 4 0;
#X connect 48 1 4 1;
#X connect 61 0 5 0;
#X connect 61 0 71 0;
#X connect 62 0 14 0;
#X connect 65 0 3 0;
#X connect 66 0 3 0;
#X connect 70 0 24 1;
#X connect 70 0 24 0;
#X connect 70 0 29 1;
