#N canvas 247 54 571 439 10;
#X floatatom 24 228 5 0 0 0 - - -;
#X obj 24 199 % 16;
#X obj 24 171 f;
#X obj 63 171 + 1;
#X msg 64 91 0;
#X obj 24 120 metro 200;
#X obj 109 128 s #0reset;
#X msg 28 91 1;
#X obj 213 33 hradio 15 1 0 3 empty empty empty 0 -8 0 10 -262144 -1
-1 0;
#X obj 24 284 int;
#X floatatom 24 339 5 0 0 0 - - -;
#X obj 63 364 change;
#X obj 63 390 bng 15 250 50 0 empty empty empty 17 7 0 10 -262144 -1
-1;
#X obj 57 253 change;
#X obj 57 279 bng 15 250 50 0 empty empty empty 17 7 0 10 -262144 -1
-1;
#X floatatom 212 223 5 0 0 0 - - -;
#X obj 212 118 pow, f 5;
#X obj 212 59 t b f;
#X msg 212 88 2;
#X obj 212 145 t b f;
#X obj 212 196 /, f 5;
#X obj 24 310 % 4;
#X obj 24 254 /;
#X msg 212 170 4;
#X obj 19 18 inlet;
#X obj 77 18 inlet;
#X connect 0 0 13 0;
#X connect 0 0 22 0;
#X connect 1 0 0 0;
#X connect 2 0 3 0;
#X connect 2 0 1 0;
#X connect 3 0 2 1;
#X connect 4 0 2 1;
#X connect 4 0 6 0;
#X connect 4 0 5 0;
#X connect 5 0 2 0;
#X connect 7 0 5 0;
#X connect 8 0 17 0;
#X connect 9 0 21 0;
#X connect 10 0 11 0;
#X connect 11 0 12 0;
#X connect 13 0 14 0;
#X connect 15 0 22 1;
#X connect 16 0 19 0;
#X connect 17 0 18 0;
#X connect 17 1 16 1;
#X connect 18 0 16 0;
#X connect 19 0 23 0;
#X connect 19 1 20 1;
#X connect 20 0 15 0;
#X connect 21 0 10 0;
#X connect 22 0 9 0;
#X connect 23 0 20 0;
#X connect 24 0 7 0;
#X connect 25 0 4 0;
