#N canvas 0 66 1907 782 10;
#X msg 26 32 connect 127.0.0.1 1234;
#X obj 26 621 udpsend;
#X obj 40 599 packOSC;
#X msg 70 268 start;
#X msg 54 199 stop;
#X obj 40 566 list trim;
#X obj 40 546 list prepend /Spacey/PD/controls;
#X obj 232 70 routeOSC /Spacey/PD/Score;
#X obj 321 564 list trim;
#X obj 321 544 list prepend /Spacey/PD/ins1;
#X msg 384 411 sq2 50 0 0 0 50 0 0 0 50 0 0 0 50 0 0 58;
#X msg 384 430 sq1 50 0 0 0 50 0 0 0 50 0 0 0 50 0 0 60;
#X msg 384 393 sq3 50 0 0 0 50 0 0 0 50 0 0 0 50 0 0 60;
#X msg 384 375 sq4 50 0 0 0 50 0 0 0 50 0 0 0 50 0 0 62;
#X msg 384 450 attack 90 10 \, decay 90 10 \, sustain 0 10 \, release
0 10;
#X msg 801 460 sq1 1 0 1 1 1 0 1 1 1 0 1 1 1 0 1 1;
#X obj 719 562 list trim;
#X obj 326 625 print;
#X obj 232 98 sel 0 1 2 3 4 5;
#X obj 232 216 s \$0init;
#X obj 246 197 s \$0sc1;
#X obj 261 178 s \$0sc2;
#X obj 275 160 s \$0sc3;
#X obj 290 141 s \$0sc4;
#X obj 384 354 r \$0init;
#X obj 70 246 r \$0init;
#X obj 76 363 r \$0sc2;
#X obj 77 410 r \$0sc3;
#X obj 74 315 r \$0sc1;
#X obj 77 456 r \$0sc4;
#X obj 304 122 s \$0sc5;
#X obj 78 499 r \$0sc5;
#X obj 801 440 r \$0init;
#X obj 719 542 list prepend /Spacey/PD/ins2;
#X msg 514 1 0;
#X msg 514 27 1;
#X msg 515 49 2;
#X msg 515 75 3;
#X msg 383 491 freq 50 10 \, res 10 10 \, env 0 10;
#X msg 384 470 vol 0.3 10000;
#X obj 384 301 r \$0sc1;
#X msg 384 322 freq 500 10000 \, vol 0.5 10000 \, res 20 10000;
#X obj 384 241 r \$0sc2;
#X msg 383 512 time 0 10 \, feed 0 10;
#X msg 384 263 time 420 10 \, feed 0.1 10000;
#X msg 74 336 tempo 115 10000;
#X msg 76 383 tempo 110 10000;
#X msg 70 289 tempo 120 1000;
#X obj 801 350 r \$0sc3;
#X msg 77 432 tempo 105 10000;
#X msg 556 2 4;
#X msg 556 28 5;
#X msg 557 50 6;
#X msg 557 76 7;
#X msg 77 476 tempo 100 10000;
#X msg 78 519 tempo 95 10000;
#X obj 1165 564 list trim;
#X obj 1165 544 list prepend /Spacey/PD/ins3;
#X obj 1192 453 r \$0init;
#X msg 1192 493 vol 0 10;
#X obj 1189 375 r \$0sc5;
#X msg 801 482 freq 50 10 \, res 10 10 \, env 0 \, vol 0 10;
#X msg 801 395 freq 50 1000;
#X msg 801 372 vol 0.7 10000;
#X obj 800 257 r \$0sc4;
#X msg 800 279 vol 0.5 10000;
#X msg 800 302 freq 150 10000;
#X msg 798 182 vol 0.3 10000;
#X msg 798 205 freq 250 10000;
#X obj 798 160 r \$0sc5;
#X obj 411 130 print;
#X obj 232 39 inlet;
#X obj 26 5 loadbang;
#X msg 1192 473 sq4 0 0 0 0 0 0 0 38 50 0 52 0 43 45 38 42;
#X msg 1192 514 attack 50 10 \, decay 90 10 \, sustain 0.7 10 \, release
150 10;
#X msg 801 502 attack 30 10 \, decay 90 10 \, sustain 0.3 10 \, release
100 10;
#X msg 1189 396 vol 0.2 100000;
#X msg 1641 491 attack 40 10 \, decay 320 10 \, sustain 0 10 \, release
0 10;
#X obj 1603 582 list trim;
#X obj 1603 562 list prepend /Spacey/PD/pickup;
#X obj 1641 469 r \$0init;
#X msg 1641 513 freq 10000 10 \, res 0 10 \, env 0 10;
#X msg 1642 238 play;
#X obj 1642 186 int;
#X obj 1642 211 change;
#X connect 0 0 1 0;
#X connect 2 0 1 0;
#X connect 3 0 6 0;
#X connect 4 0 6 0;
#X connect 5 0 2 0;
#X connect 6 0 5 0;
#X connect 7 0 18 0;
#X connect 7 0 83 0;
#X connect 8 0 2 0;
#X connect 8 0 17 0;
#X connect 9 0 8 0;
#X connect 10 0 9 0;
#X connect 11 0 9 0;
#X connect 12 0 9 0;
#X connect 13 0 9 0;
#X connect 14 0 9 0;
#X connect 15 0 33 0;
#X connect 16 0 2 0;
#X connect 18 0 19 0;
#X connect 18 1 20 0;
#X connect 18 2 21 0;
#X connect 18 3 22 0;
#X connect 18 4 23 0;
#X connect 18 5 30 0;
#X connect 24 0 13 0;
#X connect 24 0 12 0;
#X connect 24 0 11 0;
#X connect 24 0 10 0;
#X connect 24 0 14 0;
#X connect 24 0 38 0;
#X connect 24 0 43 0;
#X connect 24 0 39 0;
#X connect 25 0 3 0;
#X connect 25 0 47 0;
#X connect 26 0 46 0;
#X connect 27 0 49 0;
#X connect 28 0 45 0;
#X connect 29 0 54 0;
#X connect 31 0 55 0;
#X connect 32 0 15 0;
#X connect 32 0 61 0;
#X connect 32 0 75 0;
#X connect 33 0 16 0;
#X connect 34 0 18 0;
#X connect 35 0 18 0;
#X connect 36 0 18 0;
#X connect 37 0 18 0;
#X connect 38 0 9 0;
#X connect 39 0 9 0;
#X connect 40 0 41 0;
#X connect 41 0 9 0;
#X connect 42 0 44 0;
#X connect 43 0 9 0;
#X connect 44 0 9 0;
#X connect 45 0 6 0;
#X connect 46 0 6 0;
#X connect 47 0 6 0;
#X connect 48 0 63 0;
#X connect 48 0 62 0;
#X connect 49 0 6 0;
#X connect 50 0 18 0;
#X connect 51 0 18 0;
#X connect 52 0 18 0;
#X connect 53 0 18 0;
#X connect 54 0 6 0;
#X connect 55 0 6 0;
#X connect 56 0 2 0;
#X connect 57 0 56 0;
#X connect 58 0 73 0;
#X connect 58 0 59 0;
#X connect 58 0 74 0;
#X connect 59 0 57 0;
#X connect 60 0 76 0;
#X connect 61 0 33 0;
#X connect 62 0 33 0;
#X connect 63 0 33 0;
#X connect 64 0 65 0;
#X connect 64 0 66 0;
#X connect 65 0 33 0;
#X connect 66 0 33 0;
#X connect 67 0 33 0;
#X connect 68 0 33 0;
#X connect 69 0 67 0;
#X connect 69 0 68 0;
#X connect 71 0 7 0;
#X connect 72 0 0 0;
#X connect 73 0 57 0;
#X connect 74 0 57 0;
#X connect 75 0 33 0;
#X connect 76 0 57 0;
#X connect 77 0 79 0;
#X connect 78 0 2 0;
#X connect 79 0 78 0;
#X connect 80 0 77 0;
#X connect 80 0 81 0;
#X connect 81 0 79 0;
#X connect 82 0 79 0;
#X connect 83 0 84 0;
#X connect 84 0 82 0;
