#N canvas 1360 107 450 442 10;
#X floatatom 70 145 4 0 999 0 - - -;
#X obj 54 243 +~;
#X obj 55 28 inlet~;
#X obj 54 330 outlet~;
#X obj 199 189 hsl 128 15 0 1 0 0 empty empty empty -2 -8 0 10 -262144
-1 -1 545 1;
#X obj 70 202 *~;
#X obj 196 165 clip 0 1;
#X obj 70 173 delread~ \$0-delay;
#X obj 67 272 delwrite~ \$0-delay 1000;
#X obj 110 26 loadbang;
#N canvas 0 50 450 300 clipping 0;
#X obj 45 144 *~;
#X obj 45 165 +~ 27;
#X obj 105 132 *~;
#X obj 105 153 *~ 9;
#X obj 27 187 *~;
#X obj 27 222 /~;
#X obj 106 176 +~ 27;
#X obj 27 245 outlet~;
#X obj 27 72 clip~ -3 3;
#X obj 27 49 inlet~;
#X text 28 20 tanh(x) ~= x*(27+x*x) / (27+9*x*x);
#X connect 0 0 1 0;
#X connect 1 0 4 1;
#X connect 2 0 3 0;
#X connect 3 0 6 0;
#X connect 4 0 5 0;
#X connect 5 0 7 0;
#X connect 6 0 5 1;
#X connect 8 0 4 0;
#X connect 8 0 0 0;
#X connect 8 0 0 1;
#X connect 8 0 2 0;
#X connect 8 0 2 1;
#X connect 9 0 8 0;
#X restore 54 301 pd clipping;
#X obj 110 54 f \$1;
#X obj 145 54 f \$2;
#X obj 211 47 route time feed;
#X obj 211 25 inlet;
#X obj 211 121 clip 0 5000;
#X msg 211 72 \$1 \$2;
#X obj 211 95 line;
#X msg 303 79 \$1 \$2;
#X obj 303 102 line;
#X obj 303 128 clip 0 1;
#X connect 0 0 7 0;
#X connect 1 0 8 0;
#X connect 1 0 10 0;
#X connect 2 0 1 0;
#X connect 4 0 5 1;
#X connect 5 0 1 1;
#X connect 6 0 4 0;
#X connect 7 0 5 0;
#X connect 9 0 11 0;
#X connect 9 0 12 0;
#X connect 10 0 3 0;
#X connect 11 0 0 0;
#X connect 12 0 6 0;
#X connect 13 0 16 0;
#X connect 13 1 18 0;
#X connect 14 0 13 0;
#X connect 15 0 0 0;
#X connect 16 0 17 0;
#X connect 17 0 15 0;
#X connect 18 0 19 0;
#X connect 19 0 20 0;
#X connect 20 0 6 0;
