#N canvas 286 376 750 504 10;
#X obj 62 262 vcf~;
#X msg 24 156 \$1 50;
#X obj 24 180 line~;
#X obj 140 308 *~;
#X msg 223 249 \$1 50;
#X obj 223 273 line~;
#X obj 175 127 *~;
#X obj 72 230 +~;
#X msg 114 74 \$1 50;
#X obj 116 109 line~;
#X obj 129 198 *~ 10000;
#X obj 129 174 *~;
#X obj 24 132 r \$0-cutoff;
#X obj 114 52 r \$0-env2filter;
#X obj 223 226 r \$0-resonance;
#N canvas 0 22 450 300 clipping 0;
#X obj 45 144 *~;
#X obj 45 165 +~ 27;
#X obj 105 132 *~;
#X obj 105 153 *~ 9;
#X obj 27 187 *~;
#X obj 27 222 /~;
#X obj 106 176 +~ 27;
#X obj 27 245 outlet~;
#X obj 27 72 clip~ -3 3;
#X obj 27 49 inlet~;
#X text 28 20 tanh(x) ~= x*(27+x*x) / (27+9*x*x);
#X connect 0 0 1 0;
#X connect 1 0 4 1;
#X connect 2 0 3 0;
#X connect 3 0 6 0;
#X connect 4 0 5 0;
#X connect 5 0 7 0;
#X connect 6 0 5 1;
#X connect 8 0 4 0;
#X connect 8 0 0 0;
#X connect 8 0 0 1;
#X connect 8 0 2 0;
#X connect 8 0 2 1;
#X connect 9 0 8 0;
#X restore 147 344 pd clipping;
#X obj 140 145 *~;
#X text 17 261 filter;
#X text 218 364 VCA = multiply the final signal by the envelope;
#X obj 52 27 inlet~;
#X obj 147 385 outlet~;
#X obj 234 16 inlet~;
#X obj 536 236 vsl 12 60 10 10000 1 1 \$0-cutoff \$0-cutoff-r cutoff
0 -9 0 10 -262144 -1 -1 5900 1;
#X obj 573 265 vsl 12 60 0 1 0 1 \$0-env2filter \$0-env2filter-r envelope->filter
0 -9 0 10 -262144 -1 -1 0 1;
#X obj 555 250 vsl 12 60 1 100 1 1 \$0-resonance \$0-resonance-r resonance
0 -9 0 10 -262144 -1 -1 0 1;
#X text 287 54 synth settings:;
#X obj 528 84 route freq res env;
#X obj 484 132 line;
#X msg 502 111 \$1 \$2;
#X obj 502 154 clip 10 10000;
#X obj 597 142 line;
#X msg 597 121 \$1 \$2;
#X obj 696 152 line;
#X msg 696 131 \$1 \$2;
#X obj 528 57 inlet;
#X obj 597 164 clip 1 100;
#X obj 684 174 clip 0 1;
#X connect 0 0 3 0;
#X connect 1 0 2 0;
#X connect 2 0 7 0;
#X connect 3 0 15 0;
#X connect 4 0 5 0;
#X connect 5 0 3 1;
#X connect 6 0 16 1;
#X connect 7 0 0 1;
#X connect 8 0 9 0;
#X connect 9 0 16 0;
#X connect 10 0 7 1;
#X connect 11 0 10 0;
#X connect 12 0 1 0;
#X connect 13 0 8 0;
#X connect 14 0 4 0;
#X connect 14 0 0 2;
#X connect 15 0 20 0;
#X connect 16 0 11 1;
#X connect 16 0 11 0;
#X connect 19 0 0 0;
#X connect 21 0 6 0;
#X connect 21 0 6 1;
#X connect 26 0 28 0;
#X connect 26 1 31 0;
#X connect 26 2 33 0;
#X connect 27 0 29 0;
#X connect 28 0 27 0;
#X connect 29 0 22 0;
#X connect 30 0 35 0;
#X connect 31 0 30 0;
#X connect 32 0 36 0;
#X connect 33 0 32 0;
#X connect 34 0 26 0;
#X connect 35 0 24 0;
#X connect 36 0 23 0;
#X coords 0 504 1 503 85 120 0;
