#N canvas 103 156 1105 678 10;
#X obj 281 254 * 127;
#X obj 414 277 noise~;
#X obj 413 311 FilterA~;
#X obj 413 334 *~, f 9;
#X obj 413 378 Pan2~;
#X obj 465 254 * 127;
#X obj 478 230 r \$0reset;
#X obj 413 401 dac~ 1 2;
#X obj 465 277 diy-adsr~;
#X obj 293 230 r \$0reset;
#X obj 576 361 FilterA~;
#X obj 576 388 *~, f 9;
#X obj 577 545 Pan2~;
#X obj 649 283 * 127;
#X obj 639 229 r \$0reset;
#X obj 576 569 dac~ 1 2;
#X obj 628 339 diy-adsr~;
#X obj 605 499 f;
#X floatatom 604 521 5 0 0 0 - - -;
#X obj 605 477 metro 10;
#X obj 605 457 tgl 15 0 empty empty empty 17 7 0 10 -262144 -1 -1 0
1;
#X obj 630 499 + 0.02;
#X obj 14 294 s \$0step;
#X obj 69 294 s \$0beat;
#X obj 124 294 s \$0seq;
#X obj 53 266 Met, f 6;
#X obj 218 172 r \$0step;
#X obj 239 196 r \$0seq;
#X obj 103 266 s \$0reset;
#X msg 103 245 0;
#X obj 564 167 r \$0step;
#X obj 585 191 r \$0seq;
#X obj 576 436 Delay~ 25 0.4;
#X obj 402 167 r \$0step;
#X obj 423 194 r \$0seq;
#N canvas 1161 65 719 820 trivoice 0;
#X obj 79 723 dac~ 1 2;
#X obj 79 105 SinOsc~;
#X obj 93 125 SawOsc~;
#X obj 79 369 FilterA~;
#X obj 79 391 *~, f 9;
#X obj 107 603 f;
#X obj 132 603 + 0.01;
#X obj 79 700 Pan2~;
#X floatatom 106 625 5 0 0 0 - - -;
#X obj 107 581 metro 10;
#X obj 159 207 diy-adsr~;
#X obj 107 559 tgl 15 0 empty empty empty 17 7 0 10 -262144 -1 -1 0
1;
#X obj 78 539 Delay~ 100 0.4;
#X obj 79 14 inlet;
#X obj 159 181 inlet;
#X obj 108 146 SawOsc~;
#X obj 78 151 +~;
#X obj 78 175 +~;
#X obj 78 204 clipping~;
#X obj 240 238 vsl 15 128 10 10000 0 0 empty empty Freq 0 -9 0 10 -262144
-1 -1 0 0;
#X obj 269 238 vsl 15 128 1 100 0 1 empty empty Peak 0 -9 0 10 -262144
-1 -1 12700 0;
#X obj 299 238 vsl 15 128 0 1 0 0 empty empty Env-Int 0 -9 0 10 -262144
-1 -1 0 0;
#X obj 233 78 vsl 15 128 50 5000 1 1 empty empty A 0 -9 0 10 -262144
-1 -1 1600 0;
#X obj 262 78 vsl 15 128 50 5000 1 1 empty empty D 0 -9 0 10 -262144
-1 -1 1600 0;
#X obj 292 78 vsl 15 128 0 1 0 1 empty empty S 0 -9 0 10 -262144 -1
-1 1600 0;
#X obj 320 78 vsl 15 128 50 5000 1 0 empty empty R 0 -9 0 10 -262144
-1 -1 0 0;
#X obj 258 410 vsl 15 128 1 30 0 1 empty empty Time 0 -9 0 10 -262144
-1 -1 4200 0;
#X obj 289 410 vsl 15 128 0 1 0 1 empty empty Feedback 0 -9 0 10 -262144
-1 -1 2000 0;
#X floatatom 255 562 5 0 0 0 - - -;
#X floatatom 289 563 5 0 0 0 - - -;
#X obj 208 612 hsl 128 15 0 1 0 1 empty empty Pan -2 -8 0 10 -262144
-1 -1 6300 1;
#X obj 193 457 r metrate;
#X obj 191 525 *;
#X obj 230 538 int;
#X obj 193 479 f;
#X obj 193 504 / 4;
#X text 3 535 Tempo Delay;
#X obj 292 653 vsl 15 128 0 1 0 1 empty empty Volume 0 -9 0 10 -262144
-1 -1 6100 0;
#X msg 381 355 freq \$1 10 \, res \$2 10 \, env \$3 10;
#X obj 381 331 pack f f f;
#X msg 381 308 bang;
#X msg 391 516 bang;
#X obj 391 539 pack f f;
#X msg 373 170 bang;
#X obj 373 193 pack f f f f;
#X msg 373 217 attack \$1 10 \, decay \$2 10 \, sustain \$3 10 \, release
\$4 10;
#X msg 391 563 time \$1 10 \, feed \$2 10;
#X obj 78 650 Volume~ 0.5;
#X msg 293 797 vol \$1 10;
#X connect 1 0 16 0;
#X connect 2 0 16 1;
#X connect 3 0 4 0;
#X connect 4 0 12 0;
#X connect 5 0 6 0;
#X connect 5 0 8 0;
#X connect 6 0 5 1;
#X connect 7 0 0 0;
#X connect 7 1 0 1;
#X connect 8 0 7 1;
#X connect 9 0 5 0;
#X connect 10 0 4 1;
#X connect 10 0 3 1;
#X connect 11 0 9 0;
#X connect 12 0 47 0;
#X connect 13 0 1 0;
#X connect 13 0 2 0;
#X connect 13 0 15 0;
#X connect 13 0 3 2;
#X connect 13 0 12 1;
#X connect 13 0 47 1;
#X connect 13 0 10 1;
#X connect 14 0 10 0;
#X connect 15 0 17 1;
#X connect 16 0 17 0;
#X connect 17 0 18 0;
#X connect 18 0 3 0;
#X connect 19 0 39 0;
#X connect 19 0 40 0;
#X connect 20 0 39 1;
#X connect 20 0 40 0;
#X connect 21 0 39 2;
#X connect 21 0 40 0;
#X connect 22 0 43 0;
#X connect 22 0 44 0;
#X connect 23 0 43 0;
#X connect 23 0 44 1;
#X connect 24 0 43 0;
#X connect 24 0 44 2;
#X connect 25 0 43 0;
#X connect 25 0 44 3;
#X connect 26 0 33 0;
#X connect 26 0 41 0;
#X connect 27 0 29 0;
#X connect 27 0 41 0;
#X connect 27 0 42 1;
#X connect 28 0 42 0;
#X connect 30 0 8 0;
#X connect 31 0 34 0;
#X connect 32 0 28 0;
#X connect 33 0 32 0;
#X connect 34 0 35 0;
#X connect 35 0 32 1;
#X connect 37 0 48 0;
#X connect 38 0 3 2;
#X connect 39 0 38 0;
#X connect 40 0 39 0;
#X connect 41 0 42 0;
#X connect 42 0 46 0;
#X connect 43 0 44 0;
#X connect 44 0 45 0;
#X connect 45 0 10 1;
#X connect 46 0 12 1;
#X connect 47 0 7 0;
#X connect 48 0 47 1;
#X restore 240 289 pd trivoice;
#X obj 218 230 4BarSeq 1 4;
#X msg 101 221 stop;
#X msg 52 224 start;
#X obj 564 229 4BarSeq 1 4;
#X obj 284 10 udpreceive 1234;
#X obj 284 38 unpackOSC;
#X obj 284 65 routeOSC /Spacey/PD;
#X obj 53 173 route start stop;
#X obj 576 413 Volume~ 0;
#X obj 413 355 Volume~ 0.2;
#X obj 402 230 4BarSeq 1 2;
#X obj 613 250 - 12;
#X obj 564 308 +~;
#X obj 564 329 clipping~;
#X obj 429 53 controller;
#X obj 284 97 routeOSC /controls /ins1 /ins2 /ins3 /pickup;
#X obj 756 414 FilterA~;
#X obj 756 441 *~, f 9;
#X obj 757 598 Pan2~;
#X obj 829 356 * 127;
#X obj 756 622 dac~ 1 2;
#X obj 785 552 f;
#X floatatom 784 574 5 0 0 0 - - -;
#X obj 785 530 metro 10;
#X obj 785 510 tgl 15 0 empty empty empty 17 7 0 10 -262144 -1 -1 0
1;
#X obj 810 552 + 0.02;
#X obj 756 489 Delay~ 25 0.4;
#X obj 742 229 SawOsc~;
#X obj 744 305 +~;
#X obj 789 257 SawOsc~;
#X obj 744 382 clipping~;
#X obj 791 230 - 23;
#X obj 756 466 Volume~ 0.5;
#X obj 564 249 SawOsc~;
#X obj 600 271 SinOsc~;
#X text 108 127 Metronome;
#X text 273 131 Pulse;
#X text 361 129 Snare;
#X text 492 131 Bass Riff;
#X msg 742 197 96;
#X msg 898 436 time \$1 10;
#X obj 898 374 r metrate;
#X obj 600 311 volume~ 0.5;
#X obj 785 281 volume~ 0.5;
#X obj 808 392 diy-adsr~;
#X obj 748 144 route play;
#X obj 898 395 / 1;
#X obj 898 415 * 3;
#X text 896 354 This is essentially tempo-delay;
#X msg 637 45 \; pd dsp 1;
#X obj 637 9 loadbang;
#X connect 0 0 35 1;
#X connect 1 0 2 0;
#X connect 2 0 3 0;
#X connect 3 0 45 0;
#X connect 4 0 7 0;
#X connect 4 1 7 1;
#X connect 5 0 8 0;
#X connect 6 0 5 0;
#X connect 8 0 3 1;
#X connect 8 0 2 1;
#X connect 9 0 0 0;
#X connect 10 0 11 0;
#X connect 11 0 44 0;
#X connect 12 0 15 0;
#X connect 12 1 15 1;
#X connect 13 0 16 0;
#X connect 14 0 13 0;
#X connect 16 0 11 1;
#X connect 16 0 10 1;
#X connect 17 0 18 0;
#X connect 17 0 21 0;
#X connect 18 0 12 1;
#X connect 19 0 17 0;
#X connect 20 0 19 0;
#X connect 21 0 17 1;
#X connect 25 0 22 0;
#X connect 25 1 23 0;
#X connect 25 2 24 0;
#X connect 26 0 36 0;
#X connect 27 0 36 1;
#X connect 29 0 28 0;
#X connect 30 0 39 0;
#X connect 31 0 39 1;
#X connect 32 0 12 0;
#X connect 33 0 46 0;
#X connect 34 0 46 1;
#X connect 36 0 35 0;
#X connect 36 1 0 0;
#X connect 37 0 29 0;
#X connect 37 0 25 0;
#X connect 38 0 25 0;
#X connect 39 0 47 0;
#X connect 39 0 69 0;
#X connect 39 1 13 0;
#X connect 40 0 41 0;
#X connect 41 0 42 0;
#X connect 41 0 50 0;
#X connect 42 0 51 0;
#X connect 43 0 38 0;
#X connect 43 1 37 0;
#X connect 43 2 25 0;
#X connect 44 0 32 0;
#X connect 45 0 4 0;
#X connect 46 1 5 0;
#X connect 47 0 70 0;
#X connect 48 0 49 0;
#X connect 49 0 10 0;
#X connect 51 0 43 0;
#X connect 51 1 36 3;
#X connect 51 1 35 0;
#X connect 51 2 2 2;
#X connect 51 2 46 3;
#X connect 51 2 45 1;
#X connect 51 2 8 1;
#X connect 51 3 39 3;
#X connect 51 3 10 2;
#X connect 51 3 44 1;
#X connect 51 3 32 1;
#X connect 51 3 16 1;
#X connect 51 4 81 0;
#X connect 52 0 53 0;
#X connect 53 0 68 0;
#X connect 54 0 56 0;
#X connect 54 1 56 1;
#X connect 55 0 80 0;
#X connect 57 0 58 0;
#X connect 57 0 61 0;
#X connect 58 0 54 1;
#X connect 59 0 57 0;
#X connect 60 0 59 0;
#X connect 61 0 57 1;
#X connect 62 0 54 0;
#X connect 63 0 64 0;
#X connect 64 0 66 0;
#X connect 65 0 79 0;
#X connect 66 0 52 0;
#X connect 67 0 65 0;
#X connect 68 0 62 0;
#X connect 69 0 48 0;
#X connect 70 0 78 0;
#X connect 75 0 63 0;
#X connect 75 0 55 0;
#X connect 75 0 67 0;
#X connect 76 0 62 1;
#X connect 77 0 82 0;
#X connect 78 0 48 1;
#X connect 79 0 64 1;
#X connect 80 0 53 1;
#X connect 80 0 52 1;
#X connect 81 0 75 0;
#X connect 81 1 80 1;
#X connect 81 1 52 2;
#X connect 81 1 68 1;
#X connect 81 1 62 1;
#X connect 82 0 83 0;
#X connect 83 0 76 0;
#X connect 86 0 85 0;
