#N canvas 1194 92 448 674 10;
#X floatatom 47 209 5 0 0 0 - - -;
#X obj 20 232 metro;
#X obj 21 282 f;
#X obj 64 283 + 1;
#X obj 21 307 % 16;
#X floatatom 21 327 5 0 0 0 - - -;
#X msg 141 165 0;
#X obj 74 409 pack f f f;
#X obj 147 297 / 2;
#X obj 148 319 % 16;
#X floatatom 148 338 5 0 0 0 - - -;
#X obj 268 313 / 2;
#X obj 266 334 % 16;
#X floatatom 266 353 5 0 0 0 - - -;
#X obj 299 329 / 4;
#X obj 302 350 % 4;
#X floatatom 302 369 5 0 0 0 - - -;
#X obj 185 313 / 4;
#X obj 188 334 % 4;
#X floatatom 188 354 5 0 0 0 - - -;
#X obj 59 306 / 4;
#X obj 62 327 % 4;
#X floatatom 62 346 5 0 0 0 - - -;
#X obj 98 322 / 4;
#X obj 101 343 % 4;
#X floatatom 101 362 5 0 0 0 - - -;
#X obj 223 329 / 4;
#X obj 224 350 % 4;
#X floatatom 224 370 5 0 0 0 - - -;
#X obj 335 344 / 4;
#X obj 338 365 % 4;
#X floatatom 338 384 5 0 0 0 - - -;
#X obj 203 413 pack f f f;
#X obj 296 414 pack f f f;
#X msg 65 174 125;
#X msg 141 143 stop;
#X obj 69 14 inlet;
#X obj 75 447 outlet;
#X obj 203 434 outlet;
#X obj 296 435 outlet;
#X obj 172 196 hsl 128 15 0 127 0 0 empty empty empty -2 -8 0 10 -262144
-1 -1 12000 1;
#X obj 82 118 loadbang;
#X obj 69 239 s metrate;
#X msg 188 128 \$1 \$2;
#X obj 190 176 clip 0 500;
#X obj 69 38 route tempo start stop;
#X obj 190 153 line;
#X obj 204 254 bng 15 250 50 0 empty empty empty 17 7 0 10 -262144
-1 -1;
#X connect 0 0 1 1;
#X connect 0 0 42 0;
#X connect 1 0 2 0;
#X connect 1 0 47 0;
#X connect 2 0 3 0;
#X connect 2 0 4 0;
#X connect 2 0 8 0;
#X connect 2 0 20 0;
#X connect 3 0 2 1;
#X connect 4 0 5 0;
#X connect 5 0 7 0;
#X connect 6 0 2 1;
#X connect 7 0 37 0;
#X connect 8 0 9 0;
#X connect 8 0 11 0;
#X connect 8 0 17 0;
#X connect 9 0 10 0;
#X connect 10 0 7 1;
#X connect 11 0 12 0;
#X connect 11 0 14 0;
#X connect 12 0 13 0;
#X connect 13 0 7 2;
#X connect 14 0 15 0;
#X connect 14 0 29 0;
#X connect 15 0 16 0;
#X connect 16 0 32 2;
#X connect 17 0 18 0;
#X connect 17 0 26 0;
#X connect 18 0 19 0;
#X connect 19 0 32 1;
#X connect 20 0 21 0;
#X connect 20 0 23 0;
#X connect 21 0 22 0;
#X connect 22 0 32 0;
#X connect 23 0 24 0;
#X connect 24 0 25 0;
#X connect 25 0 33 0;
#X connect 26 0 27 0;
#X connect 27 0 28 0;
#X connect 28 0 33 1;
#X connect 29 0 30 0;
#X connect 30 0 31 0;
#X connect 31 0 33 2;
#X connect 32 0 38 0;
#X connect 33 0 39 0;
#X connect 34 0 0 0;
#X connect 35 0 1 0;
#X connect 35 0 6 0;
#X connect 36 0 45 0;
#X connect 40 0 0 0;
#X connect 41 0 34 0;
#X connect 43 0 46 0;
#X connect 44 0 40 0;
#X connect 45 0 43 0;
#X connect 45 1 1 0;
#X connect 45 2 35 0;
#X connect 46 0 44 0;
