#N canvas 60 104 450 463 10;
#X obj 39 14 inlet~;
#X obj 145 72 hsl 128 15 0 2 0 0 empty empty empty -2 -8 0 10 -262144
-1 -1 3175 1;
#X obj 155 265 *~;
#X obj 38 265 *~;
#X obj 200 289 outlet~;
#X obj 37 292 outlet~;
#X floatatom 53 199 5 0 0 0 - - -;
#X obj 145 15 inlet;
#X obj 211 15 loadbang;
#X msg 211 40 0.5;
#X obj 182 97 * 3.14159;
#X obj 182 139 cos;
#X obj 53 137 cos;
#X obj 182 118 + 3.14159;
#X obj 182 160 + 1;
#X obj 53 157 + 1;
#X obj 182 180 / 2;
#X obj 53 178 / 2;
#X floatatom 182 201 5 0 0 0 - - -;
#X obj 182 241 line~;
#X obj 54 240 line~;
#X msg 53 219 \$1 20;
#X msg 182 220 \$1 20;
#X obj 142 336 vu 15 120 empty empty -1 -8 0 10 -66577 -1 1 0;
#X obj 141 312 - 100;
#X obj 141 290 env~ 128;
#X obj 88 337 vu 15 120 empty empty -1 -8 0 10 -66577 -1 1 0;
#X obj 87 313 - 100;
#X obj 87 291 env~ 128;
#X connect 0 0 2 0;
#X connect 0 0 3 0;
#X connect 1 0 10 0;
#X connect 2 0 4 0;
#X connect 2 0 25 0;
#X connect 3 0 5 0;
#X connect 3 0 28 0;
#X connect 6 0 21 0;
#X connect 7 0 1 0;
#X connect 8 0 9 0;
#X connect 9 0 1 0;
#X connect 10 0 12 0;
#X connect 10 0 13 0;
#X connect 11 0 14 0;
#X connect 12 0 15 0;
#X connect 13 0 11 0;
#X connect 14 0 16 0;
#X connect 15 0 17 0;
#X connect 16 0 18 0;
#X connect 17 0 6 0;
#X connect 18 0 22 0;
#X connect 19 0 2 1;
#X connect 20 0 3 1;
#X connect 21 0 20 0;
#X connect 22 0 19 0;
#X connect 24 0 23 0;
#X connect 25 0 24 0;
#X connect 27 0 26 0;
#X connect 28 0 27 0;
#X coords 0 463 1 462 110 140 0;
