#N canvas 124 16 1602 624 10;
#X obj 266 -41 select 0 1 2 3 4 5 6 7 8 9 10 11 12 13 14 15;
#X obj 267 -58 inlet;
#X obj 12 631 outlet;
#X obj 70 631 outlet;
#X obj 547 -58 inlet;
#X obj 793 -58 inlet;
#X obj 547 -36 unpack f f f f f f f f f f f f f f f f;
#X obj 793 -36 unpack f f f f f f f f f f f f f f f f;
#X floatatom 56 284 5 0 0 0 - - -;
#X floatatom 56 325 5 0 0 0 - - -;
#X obj 56 304 > 0;
#X floatatom 139 285 5 0 0 0 - - -;
#X floatatom 139 326 5 0 0 0 - - -;
#X obj 139 305 > 0;
#X floatatom 215 284 5 0 0 0 - - -;
#X floatatom 215 325 5 0 0 0 - - -;
#X obj 215 304 > 0;
#X floatatom 292 285 5 0 0 0 - - -;
#X floatatom 292 326 5 0 0 0 - - -;
#X obj 292 305 > 0;
#X floatatom 363 282 5 0 0 0 - - -;
#X floatatom 363 323 5 0 0 0 - - -;
#X obj 363 302 > 0;
#X floatatom 443 283 5 0 0 0 - - -;
#X floatatom 443 324 5 0 0 0 - - -;
#X obj 443 303 > 0;
#X floatatom 520 282 5 0 0 0 - - -;
#X floatatom 520 323 5 0 0 0 - - -;
#X obj 520 302 > 0;
#X floatatom 600 283 5 0 0 0 - - -;
#X floatatom 600 324 5 0 0 0 - - -;
#X obj 600 303 > 0;
#X floatatom 676 281 5 0 0 0 - - -;
#X floatatom 676 322 5 0 0 0 - - -;
#X obj 676 301 > 0;
#X floatatom 749 279 5 0 0 0 - - -;
#X floatatom 749 320 5 0 0 0 - - -;
#X obj 749 299 > 0;
#X floatatom 825 278 5 0 0 0 - - -;
#X floatatom 825 319 5 0 0 0 - - -;
#X obj 825 298 > 0;
#X floatatom 902 279 5 0 0 0 - - -;
#X floatatom 902 320 5 0 0 0 - - -;
#X obj 902 299 > 0;
#X floatatom 973 276 5 0 0 0 - - -;
#X floatatom 973 317 5 0 0 0 - - -;
#X obj 973 296 > 0;
#X floatatom 1053 277 5 0 0 0 - - -;
#X floatatom 1053 318 5 0 0 0 - - -;
#X obj 1053 297 > 0;
#X floatatom 1130 276 5 0 0 0 - - -;
#X floatatom 1130 317 5 0 0 0 - - -;
#X obj 1130 296 > 0;
#X floatatom 1210 277 5 0 0 0 - - -;
#X floatatom 1210 318 5 0 0 0 - - -;
#X obj 1210 297 > 0;
#X obj 14 375 pack f f;
#X obj 99 377 pack f f;
#X obj 174 377 pack f f;
#X obj 250 377 pack f f;
#X obj 324 377 pack f f;
#X obj 396 377 pack f f;
#X obj 478 377 pack f f;
#X obj 13 497 unpack f f;
#X floatatom 13 526 5 0 0 0 - - -;
#X obj 556 377 pack f f;
#X obj 636 377 pack f f;
#X obj 710 377 pack f f;
#X obj 785 377 pack f f;
#X obj 861 377 pack f f;
#X obj 935 377 pack f f;
#X obj 1007 377 pack f f;
#X obj 1089 377 pack f f;
#X obj 1167 377 pack f f;
#X obj 14 605 spigot;
#X obj 68 523 > 0;
#X floatatom 68 544 5 0 0 0 - - -;
#X obj 14 397 s \$0play;
#X obj 99 399 s \$0play;
#X obj 174 399 s \$0play;
#X obj 250 399 s \$0play;
#X obj 324 399 s \$0play;
#X obj 396 399 s \$0play;
#X obj 478 399 s \$0play;
#X obj 556 399 s \$0play;
#X obj 636 399 s \$0play;
#X obj 710 399 s \$0play;
#X obj 785 399 s \$0play;
#X obj 861 399 s \$0play;
#X obj 935 399 s \$0play;
#X obj 1007 399 s \$0play;
#X obj 1089 399 s \$0play;
#X obj 1167 399 s \$0play;
#X obj 13 468 r \$0play;
#X obj 14 345 int;
#X obj 99 350 int;
#X obj 174 353 int;
#X obj 250 351 int;
#X obj 324 349 int;
#X obj 396 350 int;
#X obj 478 353 int;
#X obj 556 354 int;
#X obj 636 351 int;
#X obj 710 351 int;
#X obj 787 352 int;
#X obj 873 350 int;
#X obj 935 349 int;
#X obj 1007 350 int;
#X obj 1089 353 int;
#X obj 1167 352 int;
#X connect 0 0 94 0;
#X connect 0 1 95 0;
#X connect 0 2 96 0;
#X connect 0 3 97 0;
#X connect 0 4 98 0;
#X connect 0 5 99 0;
#X connect 0 6 100 0;
#X connect 0 7 101 0;
#X connect 0 8 102 0;
#X connect 0 9 103 0;
#X connect 0 10 104 0;
#X connect 0 11 105 0;
#X connect 0 12 106 0;
#X connect 0 13 107 0;
#X connect 0 14 108 0;
#X connect 0 15 109 0;
#X connect 1 0 0 0;
#X connect 4 0 6 0;
#X connect 5 0 7 0;
#X connect 6 0 94 1;
#X connect 6 1 95 1;
#X connect 6 2 96 1;
#X connect 6 3 97 1;
#X connect 6 4 98 1;
#X connect 6 5 99 1;
#X connect 6 6 100 1;
#X connect 6 7 101 1;
#X connect 6 8 102 1;
#X connect 6 9 103 1;
#X connect 6 10 104 1;
#X connect 6 11 105 1;
#X connect 6 12 106 1;
#X connect 6 13 107 1;
#X connect 6 14 108 1;
#X connect 6 15 109 1;
#X connect 7 0 8 0;
#X connect 7 1 11 0;
#X connect 7 2 14 0;
#X connect 7 3 17 0;
#X connect 7 4 20 0;
#X connect 7 5 23 0;
#X connect 7 6 26 0;
#X connect 7 7 29 0;
#X connect 7 8 32 0;
#X connect 7 9 35 0;
#X connect 7 10 38 0;
#X connect 7 11 41 0;
#X connect 7 12 44 0;
#X connect 7 13 47 0;
#X connect 7 14 50 0;
#X connect 7 15 53 0;
#X connect 8 0 10 0;
#X connect 9 0 56 1;
#X connect 10 0 9 0;
#X connect 11 0 13 0;
#X connect 12 0 57 1;
#X connect 13 0 12 0;
#X connect 14 0 16 0;
#X connect 15 0 58 1;
#X connect 16 0 15 0;
#X connect 17 0 19 0;
#X connect 18 0 59 1;
#X connect 19 0 18 0;
#X connect 20 0 22 0;
#X connect 21 0 60 1;
#X connect 22 0 21 0;
#X connect 23 0 25 0;
#X connect 24 0 61 1;
#X connect 25 0 24 0;
#X connect 26 0 28 0;
#X connect 27 0 62 1;
#X connect 28 0 27 0;
#X connect 29 0 31 0;
#X connect 30 0 65 1;
#X connect 31 0 30 0;
#X connect 32 0 34 0;
#X connect 33 0 66 1;
#X connect 34 0 33 0;
#X connect 35 0 37 0;
#X connect 36 0 67 1;
#X connect 37 0 36 0;
#X connect 38 0 40 0;
#X connect 39 0 68 1;
#X connect 40 0 39 0;
#X connect 41 0 43 0;
#X connect 42 0 69 1;
#X connect 43 0 42 0;
#X connect 44 0 46 0;
#X connect 45 0 70 1;
#X connect 46 0 45 0;
#X connect 47 0 49 0;
#X connect 48 0 71 1;
#X connect 49 0 48 0;
#X connect 50 0 52 0;
#X connect 51 0 72 1;
#X connect 52 0 51 0;
#X connect 53 0 55 0;
#X connect 54 0 73 1;
#X connect 55 0 54 0;
#X connect 56 0 77 0;
#X connect 57 0 78 0;
#X connect 58 0 79 0;
#X connect 59 0 80 0;
#X connect 60 0 81 0;
#X connect 61 0 82 0;
#X connect 62 0 83 0;
#X connect 63 0 64 0;
#X connect 63 1 75 0;
#X connect 64 0 74 0;
#X connect 65 0 84 0;
#X connect 66 0 85 0;
#X connect 67 0 86 0;
#X connect 68 0 87 0;
#X connect 69 0 88 0;
#X connect 70 0 89 0;
#X connect 71 0 90 0;
#X connect 72 0 91 0;
#X connect 73 0 92 0;
#X connect 74 0 2 0;
#X connect 75 0 76 0;
#X connect 76 0 74 1;
#X connect 76 0 3 0;
#X connect 93 0 63 0;
#X connect 94 0 56 0;
#X connect 95 0 57 0;
#X connect 96 0 58 0;
#X connect 97 0 59 0;
#X connect 98 0 60 0;
#X connect 99 0 61 0;
#X connect 100 0 62 0;
#X connect 101 0 65 0;
#X connect 102 0 66 0;
#X connect 103 0 67 0;
#X connect 104 0 68 0;
#X connect 105 0 69 0;
#X connect 106 0 70 0;
#X connect 107 0 71 0;
#X connect 108 0 72 0;
#X connect 109 0 73 0;
#X coords 0 624 1 623 425 145 0;
